<svg xmlns="http://www.w3.org/2000/svg" viewBox="0 0 1854 848" role="img" aria-labelledby="srkTitle srkDesc">
  <title id="srkTitle">SciResearchKit logo (animated)</title>
  <desc id="srkDesc">SciResearchKit logo: a dark-navy graduation cap with a tassel on its left, sitting on a large circle enclosing a line-drawn microscope with a small red-checkmark seal, above the SciResearchKit wordmark. Animated: mark slides in, red checkmark draws in, wordmark fades up. Falls back to static for reduced-motion users.</desc>

  <style>
    /* SciResearchKit logo intro animation.
       Timeline:
         0.00s  mark (cap + circle + microscope) drops in from above
         0.90s  red check tick draws in (left-to-right reveal)
         1.30s  wordmark fades up
       prefers-reduced-motion users see the static final state. */

    #srk-mark {
      transform-origin: 944px 400px;
      animation: srk-mark-in 0.80s cubic-bezier(0.22, 1, 0.36, 1) 0s both;
    }
    @keyframes srk-mark-in {
      from { opacity: 0; transform: translateY(-60px) scale(0.94); }
      to   { opacity: 1; transform: translateY(0)    scale(1);    }
    }

    #srk-check-tick {
      transform-origin: 965px 379px;
      clip-path: inset(0 100% 0 0);
      animation: srk-tick-draw 0.40s cubic-bezier(0.65, 0, 0.35, 1) 0.90s both;
    }
    @keyframes srk-tick-draw {
      from { clip-path: inset(0 100% 0 0); }
      to   { clip-path: inset(0 0    0 0); }
    }

    #srk-wordmark {
      transform-origin: 944px 640px;
      animation: srk-word-in 0.60s cubic-bezier(0.22, 1, 0.36, 1) 1.30s both;
    }
    @keyframes srk-word-in {
      from { opacity: 0; transform: translateY(12px); }
      to   { opacity: 1; transform: translateY(0);    }
    }

    @media (prefers-reduced-motion: reduce) {
      #srk-mark, #srk-check-tick, #srk-wordmark {
        animation: none !important;
        opacity: 1 !important;
        transform: none !important;
        clip-path: none !important;
      }
    }
  </style>

  <g id="srk-mark">
    <path d="M0 0 C0.787 0.199 1.574 0.397 2.385 0.602 C39.766 10.326 73.73 32.948 93.583 66.691 C115.289 105.262 121.257 145.751 109.694 188.547 C103.9 209.015 93.451 227.612 80 244 C79.33 244.83 78.659 245.66 77.969 246.516 C74.052 251.18 69.689 255.127 65 259 C64.484 259.439 63.969 259.877 63.438 260.329 C44.424 276.48 22.336 287.441 -2 293 C-2.689 293.164 -3.379 293.327 -4.089 293.496 C-39.835 301.7 -79.083 294.346 -110.188 275.25 C-117.712 270.485 -124.376 264.929 -131 259 C-131.844 258.277 -132.689 257.554 -133.559 256.809 C-161.607 232.638 -179.24 194.754 -182 158 C-184.046 117.269 -172.216 77.26 -144.997 46.328 C-142.728 43.822 -140.383 41.397 -138 39 C-137.767 38.765 -137.767 38.765 -136.587 37.575 C-102.218 3.406 -47.118 -12.084 0 0 Z M-38 33 C-41.121 37.207 -42.481 42.054 -44 47 C-44.82 46.616 -45.64 46.232 -46.484 45.836 C-47.562 45.354 -48.64 44.872 -49.75 44.375 C-50.817 43.888 -51.885 43.4 -52.984 42.898 C-56 42 -56 42 -58.073 42.721 C-60.293 44.195 -60.851 45.118 -61.84 47.562 C-61.993 47.93 -61.993 47.93 -62.764 49.788 C-62.922 50.189 -62.922 50.189 -63.723 52.215 C-64.065 53.049 -64.406 53.883 -64.759 54.742 C-65.873 57.469 -66.968 60.203 -68.062 62.938 C-68.829 64.824 -69.597 66.709 -70.366 68.594 C-72.254 73.23 -74.127 77.871 -75.997 82.514 C-77.379 85.94 -78.776 89.359 -80.176 92.777 C-82.369 98.135 -84.55 103.499 -86.726 108.864 C-88.044 112.108 -89.367 115.349 -90.691 118.59 C-93.47 125.389 -96.237 132.194 -99 139 C-99.55 140.352 -100.1 141.704 -100.65 143.056 C-102.062 146.527 -103.467 150 -104.869 153.475 C-105.411 154.817 -105.955 156.158 -106.501 157.498 C-107.26 159.361 -108.011 161.227 -108.762 163.094 C-109.194 164.163 -109.627 165.232 -110.073 166.334 C-111 169 -111 169 -111 172 C-99.186 177.244 -87.332 182.368 -75.312 187.125 C-74.34 187.515 -73.367 187.905 -72.365 188.306 C-71.457 188.662 -70.549 189.017 -69.613 189.383 C-68.817 189.696 -68.021 190.01 -67.2 190.333 C-65 191 -65 191 -61 191 C-60.843 190.584 -60.843 190.584 -60.047 188.48 C-59.619 187.394 -59.191 186.307 -58.75 185.188 C-58.332 184.109 -57.915 183.03 -57.484 181.918 C-56 179 -56 179 -54.062 177.645 C-50.764 175.014 -49.751 171.36 -48.25 167.5 C-47.934 166.728 -47.618 165.956 -47.293 165.16 C-45 159.433 -45 159.433 -45 156 C-44.34 156 -43.68 156 -43 156 C-42.87 156.3 -42.87 156.3 -42.211 157.816 C-38.748 164.061 -30.879 167.553 -24.504 170.094 C-16.788 172.089 -7.693 172.099 0 170 C11.522 190.425 17.868 209.545 20 233 C-13.99 232.67 -47.98 232.34 -83 232 C-83 229.36 -83 226.72 -83 224 C-83.33 223.01 -83.66 222.02 -84 221 C-77.4 221 -70.8 221 -64 221 C-63.67 219.35 -63.34 217.7 -63 216 C-64 215 -64 215 -66.512 214.88 C-67.07 214.881 -67.07 214.881 -69.897 214.886 C-70.527 214.887 -70.527 214.887 -73.719 214.887 C-75.105 214.892 -76.492 214.897 -77.879 214.902 C-79.29 214.904 -80.701 214.906 -82.112 214.907 C-85.832 214.91 -89.553 214.92 -93.273 214.931 C-97.067 214.942 -100.861 214.946 -104.654 214.951 C-112.103 214.962 -119.551 214.979 -127 215 C-127.382 216.656 -127.714 218.325 -128 220 C-127 221 -127 221 -124.683 221.114 C-123.683 221.108 -122.683 221.103 -121.652 221.098 C-120.573 221.094 -119.493 221.091 -118.381 221.088 C-117.245 221.08 -116.108 221.071 -114.938 221.062 C-114.367 221.06 -114.367 221.06 -111.482 221.049 C-108.655 221.037 -105.827 221.019 -103 221 C-103 224.96 -103 228.92 -103 233 C-104.444 232.979 -105.888 232.959 -107.375 232.938 C-111.75 232.875 -111.75 232.875 -114 234 C-114.029 237.979 -114.047 241.958 -114.062 245.938 C-114.071 247.074 -114.079 248.21 -114.088 249.381 C-114.091 250.46 -114.094 251.54 -114.098 252.652 C-114.103 253.653 -114.108 254.653 -114.114 255.683 C-114 258 -114 258 -113 259 C-110.977 259.099 -108.951 259.126 -106.926 259.127 C-106.285 259.129 -105.644 259.13 -104.983 259.132 C-102.819 259.136 -100.654 259.133 -98.49 259.129 C-96.945 259.131 -95.4 259.133 -93.854 259.135 C-89.646 259.139 -85.437 259.137 -81.229 259.134 C-76.834 259.132 -72.44 259.134 -68.045 259.136 C-60.664 259.138 -53.283 259.135 -45.902 259.13 C-37.356 259.125 -28.81 259.127 -20.263 259.132 C-12.94 259.137 -5.616 259.137 1.708 259.135 C6.089 259.133 10.469 259.133 14.849 259.136 C18.966 259.139 23.083 259.137 27.2 259.131 C28.716 259.13 30.231 259.13 31.746 259.133 C33.806 259.135 35.866 259.132 37.926 259.127 C39.082 259.127 40.237 259.126 41.428 259.126 C44 259 44 259 45 258 C45.126 255.593 45.189 253.217 45.203 250.809 C45.209 250.071 45.215 249.334 45.22 248.574 C45.23 246.999 45.236 245.424 45.24 243.85 C45.25 241.499 45.281 239.149 45.312 236.799 C45.495 210.977 37.08 187.588 21.98 166.77 C20.175 164.244 18.556 161.685 17 159 C17.459 158.527 17.918 158.054 18.391 157.566 C26.334 149.005 29.791 139.757 30.07 128.055 C29.557 116.482 24.989 106.355 17 98 C8.532 90.259 -0.69 86.811 -12 87 C-11.747 86.38 -11.494 85.759 -11.234 85.12 C-10.1 82.315 -8.987 79.501 -7.875 76.688 C-7.477 75.711 -7.078 74.735 -6.668 73.729 C-6.301 72.791 -5.933 71.853 -5.555 70.887 C-5.382 70.455 -5.382 70.455 -4.507 68.268 C-4.34 67.52 -4.172 66.771 -4 66 C-6.256 62.617 -7.309 62.213 -11 60.812 C-11.887 60.468 -12.774 60.124 -13.688 59.77 C-16 59 -16 59 -18 59 C-17.639 58.18 -17.278 57.36 -16.906 56.516 C-16.442 55.438 -15.978 54.36 -15.5 53.25 C-15.036 52.183 -14.572 51.115 -14.094 50.016 C-13 47 -13 47 -13 43 C-16.789 41.327 -20.582 39.663 -24.375 38 C-25.455 37.523 -26.535 37.046 -27.648 36.555 C-28.164 36.329 -28.164 36.329 -30.773 35.188 C-31.727 34.769 -32.68 34.35 -33.662 33.918 C-36 33 -36 33 -38 33 Z " fill="#FFFFFF" transform="translate(978,250)"/>
    <path d="M0 0 C0.738 0.278 1.477 0.556 2.238 0.843 C4.683 1.766 7.125 2.697 9.566 3.629 C11.321 4.293 13.076 4.958 14.832 5.621 C19.596 7.424 24.357 9.235 29.118 11.047 C33.203 12.6 37.289 14.147 41.376 15.695 C75.691 28.692 109.987 41.746 144.129 55.191 C144.129 56.841 144.129 58.491 144.129 60.191 C137.809 63.594 131.338 66.004 124.557 68.339 C104.598 75.221 84.882 82.741 65.129 90.191 C64.799 103.391 64.469 116.591 64.129 130.191 C60.829 129.201 57.529 128.211 54.129 127.191 C51.319 126.441 48.513 125.706 45.691 125.004 C44.999 124.827 44.306 124.649 43.592 124.467 C40.69 123.741 38.133 123.191 35.129 123.191 C35.585 123.344 35.585 123.344 37.891 124.117 C58.327 131.232 76.075 141.516 91.961 156.215 C94.129 158.191 94.129 158.191 97.191 160.566 C101.747 164.637 105.372 169.389 109.129 174.191 C109.887 175.145 110.645 176.099 111.426 177.082 C117.087 184.382 121.854 192.019 126.129 200.191 C126.468 200.837 126.807 201.483 127.157 202.148 C146.002 238.589 148.272 281.397 136.238 320.391 C131.139 335.859 124.006 351.179 114.129 364.191 C113.508 365.02 112.886 365.849 112.246 366.703 C86.903 399.383 50.742 422.161 9.441 427.875 C-30.196 432.815 -71.516 423.834 -103.621 399.316 C-110.016 394.289 -115.981 388.794 -121.871 383.191 C-122.193 382.896 -122.193 382.896 -123.824 381.398 C-151.448 355.26 -166.512 314.034 -168.094 276.637 C-169.127 238.39 -155.271 199.541 -130.871 170.191 C-130.389 169.612 -129.907 169.032 -129.411 168.435 C-121.935 159.599 -112.466 149.127 -101.793 144.24 C-99.421 143.11 -97.725 142.065 -95.871 140.191 C-94.748 136.381 -94.937 132.71 -95.09 128.766 C-95.096 128.214 -95.096 128.214 -95.124 125.424 C-95.169 121.907 -95.269 118.394 -95.371 114.879 C-95.411 112.493 -95.448 110.107 -95.48 107.721 C-95.569 101.876 -95.702 96.034 -95.871 90.191 C-100.048 88.574 -104.225 86.956 -108.402 85.339 C-109.816 84.791 -111.231 84.243 -112.646 83.696 C-121.716 80.183 -130.79 76.679 -139.871 73.191 C-139.995 78.227 -140.086 83.261 -140.146 88.298 C-140.171 90.01 -140.205 91.722 -140.248 93.433 C-140.309 95.899 -140.337 98.362 -140.359 100.828 C-140.385 101.59 -140.411 102.351 -140.438 103.136 C-140.44 107.246 -140.111 108.915 -137.375 112.067 C-136.549 112.768 -135.723 113.469 -134.871 114.191 C-134.312 116.543 -134.312 116.543 -134.434 118.816 C-134.456 119.572 -134.477 120.327 -134.5 121.105 C-134.871 123.191 -134.871 123.191 -136.871 126.191 C-137.531 126.191 -138.191 126.191 -138.871 126.191 C-138.801 126.511 -138.801 126.511 -138.444 128.128 C-137.793 131.086 -137.144 134.045 -136.496 137.004 C-136.274 138.009 -136.053 139.014 -135.824 140.049 C-134.731 145.048 -133.673 150.053 -132.707 155.078 C-132.545 155.919 -132.383 156.761 -132.216 157.628 C-131.871 160.191 -131.871 160.191 -131.871 166.191 C-139.791 166.191 -147.711 166.191 -155.871 166.191 C-157.127 162.424 -156.384 159.634 -155.621 155.855 C-155.34 154.384 -155.059 152.913 -154.777 151.441 C-154.326 149.128 -153.871 146.815 -153.414 144.503 C-152.975 142.268 -152.548 140.031 -152.121 137.793 C-151.982 137.106 -151.842 136.42 -151.698 135.712 C-150.649 130.18 -150.734 126.897 -153.871 122.191 C-154.309 118.879 -154.309 118.879 -153.871 115.191 C-153.047 114.313 -152.223 113.435 -151.374 112.531 C-147.983 108.652 -148.227 105.038 -148.383 100.074 C-148.39 99.217 -148.397 98.36 -148.404 97.477 C-148.432 94.756 -148.495 92.037 -148.559 89.316 C-148.584 87.465 -148.606 85.613 -148.627 83.762 C-148.682 79.237 -148.768 74.715 -148.871 70.191 C-149.588 69.94 -150.304 69.688 -151.042 69.429 C-154.283 68.281 -157.514 67.112 -160.746 65.941 C-161.874 65.546 -163.002 65.15 -164.164 64.742 C-165.24 64.349 -166.317 63.956 -167.426 63.551 C-168.421 63.195 -169.416 62.839 -170.441 62.472 C-173.175 61.031 -173.851 60.055 -174.871 57.191 C-172.654 54.706 -170.732 53.526 -167.63 52.348 C-166.764 52.015 -165.899 51.682 -165.007 51.338 C-164.06 50.983 -163.113 50.628 -162.137 50.262 C-161.137 49.879 -160.137 49.497 -159.107 49.103 C-155.781 47.833 -152.451 46.575 -149.121 45.316 C-146.778 44.424 -144.434 43.531 -142.092 42.637 C-137.174 40.763 -132.254 38.893 -127.333 37.026 C-120.139 34.296 -112.952 31.549 -105.766 28.797 C-83.568 20.299 -61.355 11.843 -39.121 3.441 C-38.15 3.074 -37.18 2.708 -36.179 2.329 C-33.478 1.309 -30.776 0.289 -28.074 -0.73 C-27.28 -1.03 -26.486 -1.33 -25.668 -1.639 C-15.686 -5.401 -9.745 -3.746 0 0 Z M-96.871 79.191 C-97.531 80.181 -98.191 81.171 -98.871 82.191 C-96.418 83.938 -96.418 83.938 -92.871 85.191 C-89.697 84.393 -86.979 82.819 -84.121 81.254 C-82.417 80.39 -80.708 79.533 -78.996 78.684 C-78.136 78.257 -77.276 77.83 -76.391 77.39 C-41.858 60.967 2.237 61.616 37.879 74.004 C44.801 76.481 51.339 79.583 57.859 82.969 C61.502 84.331 63.42 84.188 67.129 83.191 C67.129 81.871 67.129 80.551 67.129 79.191 C18.893 49.908 -48.856 47.76 -96.871 79.191 Z M-45.871 126.191 C-46.626 126.379 -47.382 126.567 -48.16 126.761 C-73.557 133.177 -95.572 145.655 -114.871 163.191 C-115.744 163.98 -116.616 164.769 -117.516 165.582 C-143.623 190.415 -159.735 228.887 -161.219 264.664 C-161.626 283.013 -159.747 300.744 -153.871 318.191 C-153.769 318.5 -153.769 318.5 -153.251 320.063 C-146.783 339.317 -136.892 357.055 -122.98 371.926 C-121.068 373.979 -119.283 376.092 -117.496 378.254 C-113.164 383.214 -108.06 387.167 -102.871 391.191 C-101.873 391.97 -100.876 392.749 -99.848 393.551 C-82.201 407.069 -62.586 415.563 -40.871 420.191 C-39.778 420.436 -38.685 420.681 -37.559 420.934 C-19.242 424.276 1.042 423.487 19.129 419.191 C19.857 419.025 20.585 418.859 21.335 418.688 C33.229 415.906 44.199 411.614 55.129 406.191 C55.817 405.851 56.506 405.511 57.215 405.161 C67.684 399.883 76.593 393.247 85.468 385.619 C86.855 384.427 88.258 383.254 89.664 382.086 C94.314 378.171 98.327 373.931 102.129 369.191 C102.953 368.167 103.776 367.142 104.625 366.086 C128.554 335.369 141.063 294.382 136.307 255.557 C133.861 237.623 129.114 221.427 121.129 205.191 C120.967 204.856 120.967 204.856 120.148 203.16 C113.493 189.495 104.555 178.232 94.129 167.191 C93.334 166.32 92.538 165.449 91.719 164.551 C68.767 140.318 33.158 124.308 -0.226 123.067 C-31.717 122.422 -31.717 122.422 -45.871 126.191 Z " fill="#052A63" transform="translate(956.87109375,123.80859375)"/>
    <path d="M0 0 C8.644 2.624 16.769 6.314 25 10 C24.433 14.073 23.525 17.585 21.938 21.375 C21.575 22.249 21.213 23.123 20.84 24.023 C20.563 24.676 20.286 25.328 20 26 C20.592 26.182 21.183 26.364 21.793 26.551 C22.583 26.802 23.373 27.054 24.188 27.312 C24.965 27.556 25.742 27.8 26.543 28.051 C29.243 29.094 31.559 30.452 34 32 C33.59 33.085 33.18 34.171 32.758 35.289 C32.213 36.734 31.669 38.18 31.125 39.625 C30.856 40.338 30.586 41.051 30.309 41.785 C28.787 45.831 27.336 49.887 26 54 C27.093 53.918 28.186 53.835 29.312 53.75 C39.345 53.785 48.71 59.148 55.938 65.777 C63.94 74.211 67.9 85.194 68.031 96.75 C67.424 107.434 63.744 115.83 57 124 C56.34 124.99 55.68 125.98 55 127 C55.629 127.848 56.258 128.696 56.906 129.57 C71.885 149.99 83.205 172.384 83.133 198.305 C83.134 199.069 83.135 199.834 83.136 200.622 C83.136 202.223 83.135 203.825 83.13 205.427 C83.125 207.889 83.13 210.351 83.137 212.812 C83.136 214.372 83.135 215.932 83.133 217.492 C83.135 218.231 83.137 218.969 83.139 219.73 C83.115 224.885 83.115 224.885 82 226 C79.977 226.099 77.951 226.126 75.926 226.127 C75.285 226.129 74.644 226.13 73.983 226.132 C71.819 226.136 69.654 226.133 67.49 226.129 C65.945 226.131 64.4 226.133 62.854 226.135 C58.646 226.139 54.437 226.137 50.229 226.134 C45.834 226.132 41.44 226.134 37.045 226.136 C29.664 226.138 22.283 226.135 14.902 226.13 C6.356 226.125 -2.19 226.127 -10.737 226.132 C-18.06 226.137 -25.384 226.137 -32.708 226.135 C-37.089 226.133 -41.469 226.133 -45.849 226.136 C-49.966 226.139 -54.083 226.137 -58.2 226.131 C-59.716 226.13 -61.231 226.13 -62.746 226.133 C-64.806 226.135 -66.866 226.132 -68.926 226.127 C-70.082 226.127 -71.237 226.126 -72.428 226.126 C-75 226 -75 226 -76 225 C-76.087 223.219 -76.107 221.435 -76.098 219.652 C-76.094 218.573 -76.091 217.493 -76.088 216.381 C-76.08 215.245 -76.071 214.108 -76.062 212.938 C-76.058 211.797 -76.053 210.657 -76.049 209.482 C-76.037 206.655 -76.021 203.827 -76 201 C-72.571 199.285 -68.783 199.946 -65 200 C-65 196.04 -65 192.08 -65 188 C-72.92 188 -80.84 188 -89 188 C-89.33 186.35 -89.66 184.7 -90 183 C-89 182 -89 182 -86.488 181.88 C-85.371 181.882 -84.254 181.884 -83.103 181.886 C-81.842 181.887 -80.581 181.887 -79.281 181.887 C-77.895 181.892 -76.508 181.897 -75.121 181.902 C-73.71 181.904 -72.299 181.906 -70.888 181.907 C-67.168 181.91 -63.447 181.92 -59.727 181.931 C-55.933 181.942 -52.139 181.946 -48.346 181.951 C-40.897 181.962 -33.449 181.979 -26 182 C-25.618 183.656 -25.286 185.325 -25 187 C-26 188 -26 188 -27.949 188.114 C-28.782 188.108 -29.615 188.103 -30.473 188.098 C-31.372 188.094 -32.271 188.091 -33.197 188.088 C-34.143 188.08 -35.088 188.071 -36.062 188.062 C-37.012 188.058 -37.961 188.053 -38.939 188.049 C-41.293 188.037 -43.646 188.021 -46 188 C-45.67 188.99 -45.34 189.98 -45 191 C-45 193.64 -45 196.28 -45 199 C-11.01 199.33 22.98 199.66 58 200 C55.656 180.076 55.656 180.076 53.812 173.438 C53.6 172.655 53.388 171.873 53.17 171.066 C49.745 159.002 44.265 147.832 38 137 C37.505 137.157 37.01 137.315 36.5 137.477 C25.675 139.743 14.525 138.693 5 133 C1.458 130.553 -1.955 128.052 -5 125 C-5 124.34 -5 123.68 -5 123 C-5.66 123 -6.32 123 -7 123 C-7.053 123.334 -7.053 123.334 -7.324 125.023 C-8.158 128.696 -9.437 132.13 -10.812 135.625 C-11.061 136.293 -11.309 136.96 -11.564 137.648 C-13.143 141.666 -14.571 143.522 -18 146 C-19.484 148.918 -19.484 148.918 -20.75 152.188 C-21.178 153.274 -21.606 154.361 -22.047 155.48 C-22.204 155.896 -22.204 155.896 -23 158 C-28.856 157.442 -33.671 155.746 -39.074 153.473 C-39.497 153.298 -39.497 153.298 -41.639 152.415 C-44.325 151.305 -47.006 150.184 -49.688 149.062 C-51.5 148.312 -53.314 147.563 -55.127 146.814 C-58.445 145.44 -61.763 144.066 -65.077 142.68 C-65.74 142.403 -66.403 142.126 -67.085 141.841 C-69.093 140.959 -71.047 139.996 -73 139 C-72.399 134.25 -71.013 130.129 -69.156 125.75 C-69.014 125.407 -69.014 125.407 -68.294 123.672 C-67.368 121.445 -66.434 119.223 -65.5 117 C-64.852 115.445 -64.205 113.889 -63.558 112.333 C-62.281 109.261 -61.001 106.19 -59.718 103.12 C-57.644 98.151 -55.597 93.172 -53.562 88.188 C-53.225 87.361 -52.887 86.535 -52.538 85.684 C-49.877 79.17 -47.236 72.649 -44.598 66.126 C-42.982 62.134 -41.365 58.142 -39.743 54.152 C-39.423 53.364 -39.103 52.576 -38.773 51.765 C-38.128 50.178 -37.483 48.591 -36.838 47.004 C-34.993 42.463 -33.165 37.916 -31.353 33.361 C-30.269 30.644 -29.175 27.931 -28.079 25.22 C-27.329 23.353 -26.592 21.48 -25.856 19.607 C-25.405 18.495 -24.953 17.384 -24.488 16.238 C-24.102 15.269 -23.716 14.3 -23.318 13.302 C-21.812 10.671 -20.883 9.874 -18 9 C-14.984 9.898 -14.984 9.898 -11.75 11.375 C-10.672 11.857 -9.595 12.339 -8.484 12.836 C-7.665 13.22 -6.845 13.604 -6 14 C-5.818 13.408 -5.636 12.817 -5.449 12.207 C-4.043 7.787 -2.625 3.875 0 0 Z M3 7 C0 14 0 14 -0.059 16.266 C1.633 19.037 3.964 19.605 6.938 20.75 C8.019 21.178 9.101 21.606 10.215 22.047 C13 23 13 23 15 23 C18 16.375 18 16.375 18 13 C15.525 12.01 15.525 12.01 3 7 Z M-17 16 C-20.034 20.201 -20.034 20.201 -19.915 22.997 C-18.556 25.973 -16.692 26.481 -13.742 27.805 C-13.195 28.054 -13.195 28.054 -10.425 29.315 C-9.254 29.83 -8.082 30.345 -6.875 30.875 C-6.286 31.14 -6.286 31.14 -3.305 32.481 C5.042 36.212 13.442 39.78 22 43 C23.991 40.014 24.941 37.403 26 34 C20.038 31.434 14.075 28.871 8.111 26.31 C6.08 25.437 4.05 24.564 2.02 23.69 C-0.891 22.438 -3.803 21.187 -6.715 19.938 C-7.172 19.741 -7.172 19.741 -9.483 18.744 C-10.324 18.384 -11.165 18.024 -12.031 17.652 C-12.775 17.333 -13.519 17.013 -14.285 16.683 C-16 16 -16 16 -17 16 Z M-22 27 C-22.255 27.632 -22.51 28.264 -22.772 28.915 C-26.035 37.006 -29.299 45.097 -32.562 53.188 C-32.823 53.833 -33.083 54.478 -33.351 55.143 C-42.211 77.105 -51.09 99.059 -60 121 C-57.677 123.323 -55.81 124.01 -52.758 125.207 C-51.69 125.629 -50.623 126.051 -49.523 126.486 C-48.402 126.924 -47.28 127.362 -46.125 127.812 C-43.94 128.672 -41.755 129.533 -39.57 130.395 C-38.489 130.819 -37.408 131.244 -36.294 131.682 C-31.954 133.419 -27.654 135.245 -23.359 137.089 C-21 138 -21 138 -19 138 C-17.389 134.709 -15.846 131.39 -14.312 128.062 C-13.858 127.136 -13.404 126.21 -12.936 125.256 C-10.733 120.389 -9.437 117.19 -11.188 111.988 C-11.776 110.652 -12.379 109.321 -13 108 C-15.844 96.106 -14.085 83.656 -7.812 73.188 C-1.15 63.521 6.956 58.681 18 55 C19.168 52.715 19.168 52.715 20.188 49.938 C20.36 49.478 20.36 49.478 21.23 47.152 C21.484 46.442 21.738 45.732 22 45 C12.865 40.053 3.423 35.995 -6.188 32.062 C-7.394 31.566 -8.6 31.069 -9.843 30.557 C-10.982 30.096 -12.12 29.635 -13.293 29.16 C-14.319 28.744 -15.346 28.328 -16.403 27.899 C-19 27 -19 27 -22 27 Z M-1 73 C-6.842 80.621 -10.261 90.33 -9 100 C-7.174 111.076 -2.967 119.373 5.824 126.492 C14.275 132.348 22.895 133.068 33 132 C43.285 129.536 50.817 123.37 56.523 114.629 C61.473 105.816 62.585 95.861 60.309 86.008 C56.891 75.683 50.759 68.104 41.109 63 C26.255 56.283 9.521 60.773 -1 73 Z M-62 127 C-65 132.625 -65 132.625 -65 136 C-60.452 137.922 -55.901 139.84 -51.348 141.75 C-47.911 143.192 -44.482 144.651 -41.059 146.125 C-39.539 146.771 -38.02 147.417 -36.5 148.062 C-35.789 148.373 -35.078 148.684 -34.346 149.004 C-29.34 151.113 -29.34 151.113 -26 150 C-24.045 147.015 -24 145.736 -24 142 C-29.25 139.862 -34.501 137.725 -39.753 135.591 C-41.541 134.864 -43.329 134.137 -45.116 133.409 C-47.68 132.365 -50.244 131.323 -52.809 130.281 C-53.613 129.953 -54.417 129.625 -55.245 129.287 C-60.886 127 -60.886 127 -62 127 Z M48 131 C46.68 132.32 45.36 133.64 44 135 C44.34 135.49 44.681 135.98 45.031 136.484 C58.496 157.255 62.096 180.797 65 205 C20.45 205.33 -24.1 205.66 -70 206 C-70 210.29 -70 214.58 -70 219 C-69 220 -69 220 -66.597 220.123 C-65.521 220.122 -64.445 220.121 -63.337 220.12 C-62.722 220.121 -62.722 220.121 -59.61 220.124 C-58.235 220.121 -56.859 220.117 -55.484 220.114 C-54.046 220.113 -52.607 220.113 -51.168 220.114 C-47.251 220.114 -43.334 220.108 -39.417 220.101 C-35.328 220.095 -31.238 220.095 -27.149 220.093 C-19.4 220.09 -11.651 220.082 -3.902 220.072 C4.918 220.061 13.737 220.055 22.557 220.05 C40.705 220.04 58.852 220.022 77 220 C77.016 215.819 77.026 211.638 77.035 207.457 C77.04 206.278 77.045 205.099 77.049 203.885 C77.09 177.964 68.483 151.658 51 132 C50.01 131.67 49.02 131.34 48 131 Z M-59 188 C-59 191.96 -59 195.92 -59 200 C-56.69 200 -54.38 200 -52 200 C-52 196.04 -52 192.08 -52 188 C-54.31 188 -56.62 188 -59 188 Z " fill="#052A63" transform="translate(940,283)"/>
    <path d="M0 0 C4.488 0.588 8.21 1.754 12.359 3.547 C12.959 3.805 12.959 3.805 15.992 5.109 C16.611 5.379 17.229 5.649 17.866 5.928 C19.728 6.74 21.594 7.543 23.461 8.344 C30.421 11.354 37.267 14.511 44 18 C43.055 21.686 42.099 24.785 40 28 C37.113 29.687 34.254 30.708 31.102 31.812 C21.661 35.427 15.242 43.266 10.938 52.207 C6.867 62.441 6.939 73.514 10 84 C10.222 84.426 10.222 84.426 11.344 86.582 C12.386 92.009 9.912 95.998 7.625 100.875 C7.187 101.85 6.748 102.824 6.297 103.828 C5.215 106.227 4.116 108.617 3 111 C-4.756 108.545 -12.231 105.537 -19.75 102.438 C-22.141 101.457 -24.531 100.476 -26.922 99.496 C-27.97 99.065 -29.017 98.634 -30.097 98.189 C-32.726 97.112 -35.36 96.051 -38 95 C-34.386 85.192 -30.615 75.475 -26.59 65.828 C-20.296 50.733 -14.189 35.564 -8.125 20.375 C-7.719 19.357 -7.312 18.34 -6.894 17.292 C-4.594 11.529 -2.296 5.765 0 0 Z " fill="#FFFFFF" transform="translate(918,310)"/>
    <path d="M0 0 C6.434 5.976 10.495 14.038 11.238 22.812 C11.512 34.555 9.039 43.802 1.281 52.805 C-7.274 61.038 -16.62 63.517 -28.246 63.301 C-38.421 62.486 -45.242 57.442 -52 50 C-57.637 42.449 -60.314 32.392 -59 23 C-56.532 12.396 -53.325 3.658 -44.184 -2.684 C-29.31 -11.651 -13.655 -11.139 0 0 Z M-8 11 C-14.959 18.453 -21.64 26.023 -28 34 C-31.681 32.464 -33.988 30.218 -36.75 27.375 C-37.549 26.558 -38.348 25.74 -39.172 24.898 C-39.775 24.272 -40.378 23.645 -41 23 C-41.66 23.33 -41.66 23.33 -45 25 C-44.621 29.965 -42.099 32.383 -38.625 35.625 C-38.13 36.102 -37.635 36.579 -37.125 37.07 C-35.757 38.387 -34.379 39.694 -33 41 C-32.471 41.626 -31.943 42.253 -31.398 42.898 C-30 44 -30 44 -28.137 44.059 C-24.914 42.462 -23.01 39.822 -20.812 37.062 C-19.841 35.876 -18.869 34.692 -17.895 33.508 C-17.411 32.916 -16.927 32.325 -16.428 31.716 C-13.685 28.421 -10.772 25.28 -7.875 22.121 C-6.121 20.137 -4.46 18.211 -3 16 C-3.312 13.75 -3.312 13.75 -4 12 C-5.32 11.67 -6.64 11.34 -8 11 Z " fill="#FFFFFF" transform="translate(990,352)"/>
    <path d="M0 0 C4.394 1.512 6.338 4.897 8.75 8.625 C9.185 9.291 9.619 9.957 10.067 10.643 C23.31 31.348 29.163 51.881 29.043 76.477 C29.04 77.682 29.037 78.888 29.034 80.13 C29.026 83.087 29.014 86.043 29 89 C9.981 89.023 -9.038 89.041 -28.056 89.052 C-36.886 89.057 -45.717 89.064 -54.547 89.075 C-62.24 89.085 -69.934 89.092 -77.627 89.094 C-81.703 89.095 -85.779 89.098 -89.856 89.106 C-93.688 89.112 -97.52 89.115 -101.352 89.113 C-102.763 89.113 -104.173 89.115 -105.584 89.119 C-107.502 89.124 -109.419 89.122 -111.337 89.12 C-112.413 89.121 -113.488 89.122 -114.597 89.123 C-117 89 -117 89 -118 88 C-118 83.71 -118 79.42 -118 75 C-95.725 74.835 -95.725 74.835 17 74 C13.983 48.858 9.794 29.583 -1.68 7.828 C-3 5 -3 5 -3 2 C-2.01 1.34 -1.02 0.68 0 0 Z " fill="#FFFFFF" transform="translate(988,414)"/>
    <path d="M0 0 C-0.33 0.99 -0.66 1.98 -1 3 C-6.552 4.592 -9.828 3.028 -14.688 0.438 C-50.203 -17.248 -93.218 -19.464 -131 -8 C-140.905 -4.612 -150.613 -0.534 -159.809 4.48 C-162 5 -162 5 -164.785 3.613 C-165.516 3.081 -166.247 2.549 -167 2 C-129.779 -38.137 -40.641 -28.879 0 0 Z " fill="#FFFFFF" transform="translate(1025,204)"/>
    <path d="M0 0 C14.347 5.968 28.685 11.957 43 18 C42.01 20.97 41.02 23.94 40 27 C25.016 22.136 11.003 15.163 -3 8 C-2.453 4.625 -1.945 2.918 0 0 Z " fill="#FFFFFF" transform="translate(923,299)"/>
    <path d="M0 0 C0.689 0.277 1.378 0.553 2.089 0.839 C27.377 10.987 27.377 10.987 38 15 C37.502 18.735 37.125 20.812 35 24 C26.773 21.426 18.88 18.136 10.938 14.812 C9.582 14.248 8.225 13.683 6.869 13.119 C3.578 11.749 0.289 10.376 -3 9 C-2.443 5.656 -1.648 2.967 0 0 Z " fill="#FFFFFF" transform="translate(878,410)"/>
    <path d="M0 0 C4.95 1.98 9.9 3.96 15 6 C14.254 9.731 13.468 12.574 12 16 C6.767 14.36 1.848 12.61 -3 10 C-2.692 8.52 -2.378 7.041 -2.062 5.562 C-1.975 5.151 -1.975 5.151 -1.535 3.066 C-1 1 -1 1 0 0 Z " fill="#FFFFFF" transform="translate(943,290)"/>
    <path d="M0 0 C2.31 0 4.62 0 7 0 C7 3.96 7 7.92 7 12 C4.69 12 2.38 12 0 12 C0 8.04 0 4.08 0 0 Z " fill="#FFFFFF" transform="translate(881,471)"/>
  </g>
  <g id="srk-check-tick">
    <path d="M0 0 C1.32 0.33 2.64 0.66 4 1 C4.742 2.715 4.742 2.715 5 5 C3.445 7.191 3.445 7.191 1.125 9.562 C-2.297 13.171 -5.56 16.819 -8.688 20.688 C-12.06 24.853 -15.49 28.95 -19 33 C-23.168 32.508 -24.839 31.584 -27.438 28.312 C-29.658 25.579 -31.872 23.154 -34.5 20.812 C-37 18 -37 18 -36.875 15.125 C-36.586 14.424 -36.298 13.723 -36 13 C-35.01 12.67 -34.02 12.34 -33 12 C-29.37 15.63 -25.74 19.26 -22 23 C-17.76 20.88 -15.59 18.456 -12.688 14.875 C-11.717 13.701 -10.745 12.528 -9.773 11.355 C-9.303 10.784 -8.832 10.212 -8.347 9.623 C-5.634 6.355 -2.815 3.18 0 0 Z " fill="#A61219" transform="translate(982,363)"/>
  </g>
  <g id="srk-wordmark">
    <path d="M0 0 C2.207 -0.01 4.412 -0.041 6.619 -0.072 C20.623 -0.176 37.417 0.27 48.566 9.768 C59.041 20.76 58.144 36.38 57.988 50.502 C57.733 60.182 56.692 70.856 49.773 78.24 C44.159 82.838 38.08 85.24 30.773 85.24 C34.381 92.423 38.569 99.143 42.961 105.865 C43.517 106.72 44.074 107.574 44.647 108.454 C47.437 112.72 50.257 116.961 53.133 121.17 C53.652 121.941 54.171 122.713 54.706 123.507 C55.69 124.967 56.687 126.419 57.698 127.86 C59.019 129.834 59.019 129.834 60.773 133.24 C59.883 135.453 59.883 135.453 58.773 137.24 C55.421 137.504 52.071 137.662 48.711 137.803 C47.768 137.878 46.825 137.954 45.853 138.031 C41.774 138.159 38.939 138.217 35.725 135.524 C33.86 133.186 32.301 130.81 30.773 128.24 C30.295 127.483 29.816 126.727 29.323 125.947 C27.886 123.632 26.516 121.284 25.148 118.928 C24.093 117.185 23.037 115.443 21.98 113.701 C19.786 110.041 17.78 106.334 15.847 102.529 C14.844 100.703 13.841 98.878 12.836 97.053 C12.637 96.619 12.637 96.619 11.632 94.425 C9.896 91.401 8.805 90.038 5.773 88.24 C-1.116 86.884 -8.235 87.055 -15.227 87.24 C-15.222 87.837 -15.218 88.434 -15.213 89.049 C-15.169 95.245 -15.139 101.442 -15.117 107.638 C-15.107 109.953 -15.093 112.267 -15.076 114.582 C-15.052 117.903 -15.04 121.224 -15.031 124.545 C-15.021 125.585 -15.011 126.624 -15 127.695 C-15 128.656 -15 129.617 -15 130.607 C-14.995 131.455 -14.991 132.303 -14.986 133.177 C-15.227 135.24 -15.227 135.24 -17.227 137.24 C-19.074 137.483 -19.074 137.483 -21.289 137.471 C-21.688 137.47 -21.688 137.47 -23.703 137.465 C-24.536 137.453 -25.369 137.44 -26.227 137.428 C-27.06 137.427 -27.892 137.426 -28.75 137.426 C-34.946 137.381 -34.946 137.381 -37.227 136.24 C-37.227 92.35 -37.227 48.46 -37.227 3.24 C-32.252 1.582 -29.03 0.903 -23.942 0.631 C-23.249 0.594 -22.557 0.557 -21.844 0.518 C-14.566 0.156 -7.286 0.019 0 0 Z M-15.227 20.24 C-15.227 36.08 -15.227 51.92 -15.227 68.24 C-10.791 70.458 -4.721 69.425 0.148 69.428 C1.374 69.44 2.6 69.452 3.863 69.465 C12.854 69.479 21.994 69.336 30.336 65.678 C35.786 60.227 36.043 53.739 36.086 46.303 C35.877 31.237 35.877 31.237 31.711 25.303 C22.536 18.861 12.387 19.886 1.711 20.053 C-1.084 20.084 -1.084 20.084 -15.227 20.24 Z " fill="#052A63" transform="translate(645.226806640625,579.759765625)"/>
    <path d="M0 0 C0.779 0.004 1.558 0.008 2.361 0.012 C3.207 0.014 4.054 0.016 4.926 0.018 C5.81 0.031 6.695 0.043 7.607 0.055 C8.496 0.056 9.385 0.057 10.301 0.057 C16.904 0.103 16.904 0.103 18.045 1.243 C18.168 2.991 18.223 4.745 18.25 6.497 C18.27 7.618 18.29 8.739 18.31 9.894 C18.327 11.114 18.344 12.334 18.361 13.591 C18.382 14.832 18.403 16.074 18.424 17.353 C18.479 20.659 18.529 23.965 18.577 27.271 C18.627 30.643 18.683 34.014 18.738 37.385 C18.845 44.005 18.947 50.624 19.045 57.243 C21.289 54.522 23.532 51.801 25.775 49.079 C26.091 48.696 26.091 48.696 27.689 46.758 C31.566 42.054 35.404 37.321 39.201 32.552 C45.487 24.681 51.945 16.96 58.467 9.286 C61.045 6.243 61.045 6.243 63.166 2.88 C66.948 -0.585 69.321 -0.383 74.304 -0.284 C75.312 -0.234 76.319 -0.184 77.357 -0.132 C78.384 -0.105 79.411 -0.078 80.469 -0.05 C82.996 0.02 85.519 0.119 88.045 0.243 C88.683 2.051 88.683 2.051 89.045 4.243 C87.331 6.619 85.644 8.666 83.67 10.805 C82.548 12.065 81.426 13.325 80.306 14.587 C80.028 14.897 80.028 14.897 78.616 16.469 C76.5 18.858 74.487 21.323 72.482 23.805 C69.199 27.85 65.858 31.838 62.482 35.805 C58.529 40.451 54.676 45.16 50.908 49.958 C48.484 52.93 45.87 55.705 43.197 58.454 C42.045 60.243 42.045 60.243 42.127 62.145 C43.337 64.911 44.946 67.039 46.795 69.43 C47.19 69.946 47.584 70.462 47.991 70.993 C49.337 72.747 50.691 74.495 52.045 76.243 C54.111 78.928 56.172 81.616 58.232 84.305 C58.778 85.017 59.324 85.728 59.887 86.461 C64.675 92.718 69.346 99.056 74.004 105.41 C78.248 111.189 82.586 116.885 86.978 122.552 C89.417 125.728 91.753 128.959 94.045 132.243 C93.385 133.563 92.725 134.883 92.045 136.243 C88.525 136.477 85.007 136.618 81.482 136.743 C80.492 136.81 79.501 136.877 78.48 136.946 C71.223 137.139 71.223 137.139 67.922 134.629 C66.117 132.586 64.567 130.502 63.045 128.243 C62.274 127.258 61.503 126.273 60.709 125.259 C60.036 124.346 59.363 123.433 58.67 122.493 C57.9 121.455 57.131 120.418 56.338 119.348 C55.581 118.324 54.824 117.299 54.045 116.243 C48.444 108.729 42.786 101.26 37.107 93.805 C36.463 92.96 35.819 92.114 35.156 91.243 C29.806 84.227 24.428 77.233 19.045 70.243 C19.034 71.055 19.024 71.867 19.013 72.704 C18.916 80.341 18.813 87.979 18.705 95.616 C18.65 99.543 18.597 103.47 18.547 107.396 C18.5 111.183 18.447 114.97 18.392 118.756 C18.371 120.204 18.353 121.652 18.336 123.099 C18.312 125.121 18.281 127.142 18.25 129.163 C18.234 130.315 18.219 131.468 18.203 132.655 C18.045 135.243 18.045 135.243 17.045 136.243 C13.906 136.493 10.754 136.428 7.607 136.43 C6.722 136.443 5.837 136.455 4.926 136.468 C4.079 136.469 3.233 136.471 2.361 136.473 C1.582 136.477 0.803 136.482 0 136.486 C-1.955 136.243 -1.955 136.243 -3.955 134.243 C-4.207 131.941 -4.207 131.941 -4.209 129.005 C-4.215 127.894 -4.221 126.784 -4.226 125.639 C-4.222 124.415 -4.218 123.191 -4.214 121.93 C-4.218 120.646 -4.221 119.361 -4.225 118.038 C-4.234 114.509 -4.23 110.98 -4.224 107.451 C-4.219 103.763 -4.224 100.075 -4.227 96.387 C-4.23 90.193 -4.226 83.999 -4.216 77.805 C-4.205 70.638 -4.209 63.47 -4.22 56.303 C-4.229 50.156 -4.23 44.009 -4.225 37.862 C-4.222 34.188 -4.221 30.513 -4.228 26.839 C-4.235 22.744 -4.225 18.65 -4.214 14.555 C-4.216 13.943 -4.216 13.943 -4.226 10.846 C-4.221 9.736 -4.215 8.625 -4.209 7.481 C-4.209 6.512 -4.208 5.543 -4.207 4.545 C-3.88 1.552 -3.064 0.381 0 0 Z " fill="#052A63" transform="translate(1350.955322265625,580.757080078125)"/>
    <path d="M0 0 C1.238 0.001 2.476 0.002 3.752 0.002 C11.102 0.051 18.376 0.296 25.688 1.062 C26.443 1.141 27.198 1.219 27.976 1.3 C36.943 2.38 36.943 2.38 39.75 5.188 C39.902 7.33 39.972 9.478 40 11.625 C40.026 12.799 40.052 13.974 40.078 15.184 C39.97 16.175 39.862 17.166 39.75 18.188 C36.524 20.338 35.663 20.437 31.947 20.443 C30.972 20.45 29.997 20.457 28.992 20.464 C28.465 20.463 28.465 20.463 25.801 20.461 C23.568 20.481 21.336 20.502 19.104 20.523 C15.586 20.546 12.069 20.562 8.551 20.568 C5.155 20.578 1.759 20.612 -1.637 20.648 C-2.68 20.643 -3.723 20.638 -4.797 20.633 C-10.885 20.715 -16.363 21.224 -21.25 25.188 C-24.59 30.614 -23.786 37.05 -23.25 43.188 C-21.839 47.016 -20.673 48.436 -17.087 50.33 C-8.273 54.299 0.751 57.617 9.836 60.906 C36.042 70.623 36.042 70.623 42.75 82.188 C47.507 93.704 47.416 109.609 42.973 121.219 C39.266 128.473 33.096 132.659 25.592 135.31 C15.908 138.299 6.057 138.509 -4 138.438 C-4.667 138.435 -5.333 138.433 -6.02 138.43 C-15.348 138.39 -24.637 138.06 -33.938 137.312 C-34.433 137.273 -34.433 137.273 -36.938 137.075 C-41.215 136.68 -44.457 136.311 -48.25 134.188 C-48.277 131.896 -48.296 129.604 -48.312 127.312 C-48.324 126.036 -48.336 124.76 -48.348 123.445 C-48.25 120.188 -48.25 120.188 -47.25 118.188 C-46.529 118.182 -45.807 118.176 -45.064 118.17 C-38.238 118.112 -31.412 118.039 -24.587 117.952 C-21.078 117.907 -17.57 117.868 -14.061 117.841 C-10.02 117.81 -5.979 117.755 -1.938 117.699 C-0.688 117.693 0.561 117.686 1.848 117.68 C8.481 117.569 13.77 117.167 19.75 114.188 C23.182 108.809 22.466 101.11 21.355 95.027 C19.54 89.699 15.412 87.715 10.75 85.188 C7.957 83.926 5.114 82.873 2.227 81.848 C0.612 81.253 -1.003 80.659 -2.617 80.064 C-5.119 79.156 -7.623 78.251 -10.127 77.347 C-36.876 67.653 -36.876 67.653 -43.25 57.188 C-46.272 50.474 -46.762 44.103 -46.688 36.812 C-46.681 35.798 -46.675 34.783 -46.669 33.737 C-46.489 25.135 -44.914 18.727 -40.562 11.312 C-29.23 0.898 -14.583 -0.01 0 0 Z " fill="#052A63" transform="translate(414.25,579.8125)"/>
    <path d="M0 0 C0.369 0.002 0.369 0.002 2.234 0.012 C3.035 0.014 3.836 0.016 4.662 0.018 C5.499 0.031 6.336 0.043 7.199 0.055 C7.62 0.056 7.62 0.056 9.748 0.057 C15.996 0.103 15.996 0.103 17.136 1.243 C17.225 4.055 17.252 6.842 17.234 9.653 C17.233 10.495 17.231 11.337 17.23 12.205 C17.224 14.905 17.212 17.605 17.199 20.305 C17.194 22.132 17.189 23.958 17.185 25.784 C17.174 30.27 17.157 34.757 17.136 39.243 C17.691 39.103 18.245 38.963 18.816 38.819 C26.415 37.083 33.802 36.876 41.574 36.868 C42.82 36.843 44.066 36.819 45.349 36.794 C54.523 36.765 62.83 37.744 70.136 43.68 C78.543 54.452 78.586 66.794 78.5 79.876 C78.499 81.446 78.5 83.016 78.501 84.585 C78.501 87.848 78.491 91.11 78.473 94.373 C78.45 98.558 78.449 102.743 78.456 106.929 C78.46 110.158 78.453 113.387 78.443 116.616 C78.439 118.16 78.438 119.705 78.44 121.249 C78.44 123.396 78.427 125.542 78.411 127.689 C78.409 128.299 78.409 128.299 78.397 131.388 C78.136 134.243 78.136 134.243 76.136 136.243 C73.245 136.415 70.462 136.475 67.574 136.43 C66.781 136.43 65.987 136.429 65.17 136.428 C59.277 136.383 59.277 136.383 58.136 135.243 C58.024 133.476 57.98 131.706 57.963 129.936 C57.949 128.8 57.936 127.664 57.922 126.493 C57.912 125.252 57.901 124.01 57.89 122.731 C57.866 120.782 57.841 118.833 57.816 116.884 C57.756 112.073 57.705 107.262 57.66 102.452 C57.634 99.762 57.603 97.072 57.567 94.382 C57.534 91.855 57.507 89.327 57.49 86.799 C57.18 64.88 57.18 64.88 53.339 59.923 C46.665 54.831 36.476 55.992 28.511 56.118 C27.412 56.127 26.312 56.136 25.179 56.145 C22.498 56.169 19.817 56.201 17.136 56.243 C17.139 57.23 17.141 58.218 17.143 59.235 C17.163 68.521 17.178 77.806 17.188 87.092 C17.194 91.866 17.201 96.641 17.212 101.415 C17.223 106.019 17.229 110.622 17.231 115.226 C17.233 116.986 17.237 118.746 17.242 120.507 C17.249 122.964 17.25 125.421 17.25 127.877 C17.254 128.613 17.257 129.348 17.261 130.105 C17.251 135.129 17.251 135.129 16.136 136.243 C13.146 136.37 10.19 136.428 7.199 136.43 C6.362 136.443 5.524 136.455 4.662 136.468 C3.861 136.469 3.06 136.471 2.234 136.473 C1.497 136.477 0.76 136.482 0 136.486 C-1.864 136.243 -1.864 136.243 -3.864 134.243 C-4.115 131.941 -4.115 131.941 -4.117 129.005 C-4.123 127.894 -4.129 126.784 -4.135 125.639 C-4.131 124.415 -4.126 123.191 -4.122 121.93 C-4.126 120.646 -4.129 119.361 -4.133 118.038 C-4.142 114.509 -4.139 110.98 -4.132 107.451 C-4.127 103.763 -4.132 100.075 -4.135 96.387 C-4.139 90.193 -4.134 83.999 -4.124 77.805 C-4.113 70.638 -4.117 63.47 -4.128 56.303 C-4.137 50.156 -4.138 44.009 -4.133 37.862 C-4.13 34.188 -4.13 30.513 -4.136 26.839 C-4.143 22.744 -4.133 18.65 -4.122 14.555 C-4.124 13.943 -4.124 13.943 -4.135 10.846 C-4.129 9.736 -4.123 8.625 -4.117 7.481 C-4.117 6.512 -4.116 5.543 -4.115 4.545 C-3.795 1.619 -3.016 0.393 0 0 Z " fill="#052A63" transform="translate(1245.863525390625,580.757080078125)"/>
    <path d="M0 0 C2.019 -0.01 4.037 -0.041 6.056 -0.072 C16.207 -0.113 25.218 0.653 33.355 7.24 C43.508 17.393 43.504 33.559 43.605 46.99 C43.614 47.872 43.623 48.755 43.633 49.664 C43.629 50.488 43.625 51.313 43.62 52.162 C43.618 52.9 43.616 53.639 43.614 54.399 C43.355 56.24 43.355 56.24 41.355 58.24 C38.912 58.481 38.912 58.481 35.803 58.467 C35.223 58.467 35.223 58.467 32.285 58.467 C31.027 58.457 29.768 58.446 28.472 58.436 C27.187 58.433 25.903 58.43 24.579 58.427 C21.163 58.419 17.747 58.4 14.331 58.378 C10.845 58.357 7.36 58.348 3.874 58.338 C-2.966 58.316 -9.805 58.282 -16.645 58.24 C-16.354 60.496 -16.054 62.751 -15.751 65.006 C-15.585 66.262 -15.419 67.518 -15.248 68.812 C-14.479 73.185 -13.816 75.155 -10.645 78.24 C-5.203 80.22 -0.221 80.56 5.534 80.619 C6.388 80.636 7.241 80.653 8.12 80.671 C10.823 80.723 13.526 80.764 16.23 80.803 C18.954 80.847 21.679 80.893 24.403 80.946 C26.094 80.978 27.784 81.004 29.475 81.026 C35.243 81.128 35.243 81.128 36.355 82.24 C36.428 84.771 36.447 87.273 36.417 89.803 C36.413 90.514 36.408 91.225 36.404 91.957 C36.392 93.718 36.374 95.479 36.355 97.24 C26.494 100.527 16.22 100.421 5.917 100.428 C4.875 100.44 3.833 100.452 2.759 100.465 C-8.274 100.485 -19.755 99.97 -28.548 92.658 C-39.233 81.928 -38.847 65.267 -38.833 51.115 C-38.745 18.763 -38.745 18.763 -30.009 8.275 C-21.356 0.323 -11.208 0.032 0 0 Z M-12.583 22.428 C-17.335 28.909 -16.645 34.063 -16.645 42.24 C-3.775 42.24 9.095 42.24 22.355 42.24 C22.355 34.062 22.285 28.472 17.667 21.803 C9.395 16.213 -4.596 16.48 -12.583 22.428 Z " fill="#052A63" transform="translate(757.645263671875,617.759765625)"/>
    <path d="M0 0 C1.264 -0.021 2.528 -0.041 3.83 -0.062 C15.092 -0.109 24.675 0.792 32.938 8.98 C41.576 19.437 40.946 35.815 41.062 48.75 C41.072 49.474 41.081 50.198 41.091 50.944 C41.059 56.003 41.059 56.003 38.812 58.25 C36.332 58.491 36.332 58.491 33.169 58.477 C31.988 58.477 30.807 58.477 29.59 58.477 C28.31 58.466 27.03 58.456 25.711 58.445 C25.058 58.444 25.058 58.444 21.751 58.437 C18.276 58.429 14.8 58.409 11.325 58.387 C7.779 58.367 4.233 58.358 0.688 58.348 C-6.271 58.326 -13.229 58.292 -20.188 58.25 C-19.711 60.855 -19.231 63.459 -18.75 66.062 C-18.615 66.8 -18.481 67.538 -18.342 68.299 C-17.773 71.363 -17.174 74.289 -16.188 77.25 C-7.793 82.118 4.078 80.817 13.438 80.938 C15.223 80.971 17.008 81.005 18.793 81.041 C23.133 81.125 27.472 81.192 31.812 81.25 C34 86.52 34.751 90.732 33.234 96.418 C31.812 98.25 31.812 98.25 28.812 99.078 C27.482 99.243 26.148 99.382 24.812 99.5 C24.081 99.574 23.349 99.647 22.595 99.723 C-17.371 103.236 -17.371 103.236 -30.477 93.863 C-39.373 85.475 -41.136 72.687 -41.547 60.99 C-41.6 58.131 -41.604 55.275 -41.579 52.416 C-41.563 50.251 -41.579 48.087 -41.598 45.922 C-41.616 33.736 -41.208 19.105 -33.188 9.25 C-23.371 0.051 -12.868 0.052 0 0 Z M-17.188 24.25 C-20.305 30.51 -20.188 34.965 -20.188 42.25 C-6.987 42.25 6.212 42.25 19.812 42.25 C18.812 28.25 18.812 28.25 15.812 22.25 C6.605 16.445 -9.409 15.582 -17.188 24.25 Z " fill="#052A63" transform="translate(942.1875,617.75)"/>
    <path d="M0 0 C2.199 -0.01 4.396 -0.041 6.595 -0.072 C17.482 -0.155 27.192 0.618 36.148 7.35 C47.879 19.996 44.246 42.984 44.217 58.862 C44.211 62.332 44.229 65.802 44.252 69.272 C44.27 72.61 44.266 75.949 44.265 79.287 C44.274 80.529 44.283 81.77 44.293 83.049 C44.287 84.199 44.28 85.348 44.274 86.532 C44.275 87.541 44.275 88.55 44.276 89.589 C43.841 92.671 43.057 94.022 40.902 96.24 C23.165 102.431 -7.114 104.28 -24.598 96.428 C-30.307 93.213 -33.033 88.328 -35.098 82.24 C-36.63 72.153 -36.983 61.808 -32.473 52.428 C-27.734 46.066 -21.782 43.683 -14.098 42.24 C-11.134 41.998 -8.196 42.005 -5.223 42.045 C-4.818 42.046 -4.818 42.046 -2.769 42.053 C-0.212 42.065 2.345 42.09 4.902 42.115 C6.648 42.125 8.394 42.134 10.14 42.143 C14.394 42.164 18.648 42.199 22.902 42.24 C22.673 39.487 22.42 36.74 22.152 33.99 C22.09 33.213 22.028 32.436 21.964 31.635 C21.586 27.952 21.31 25.786 19.054 22.772 C10.91 16.978 -1.73 19.132 -11.267 19.357 C-13.479 19.405 -15.691 19.435 -17.903 19.463 C-19.213 19.491 -20.522 19.52 -21.871 19.549 C-25.098 19.24 -25.098 19.24 -27.043 17.922 C-28.771 15.168 -28.13 12.708 -27.786 9.553 C-27.726 8.963 -27.726 8.963 -27.423 5.979 C-27.316 5.075 -27.209 4.171 -27.098 3.24 C-18.723 -0.686 -9.05 0.024 0 0 Z M-13.012 60.994 C-14.398 63.86 -14.497 66.001 -14.473 69.178 C-14.481 70.197 -14.489 71.217 -14.497 72.268 C-14.027 75.774 -13.399 77.54 -11.098 80.24 C-6.008 82.324 -1.195 82.549 4.214 82.49 C4.91 82.498 5.605 82.506 6.322 82.514 C12.248 82.492 16.852 81.45 22.902 80.24 C22.902 72.65 22.902 65.06 22.902 57.24 C18.547 57.186 14.194 57.147 9.839 57.115 C8.61 57.098 7.381 57.082 6.115 57.064 C-8.637 56.985 -8.637 56.985 -13.012 60.994 Z " fill="#052A63" transform="translate(1030.098388671875,617.759765625)"/>
    <path d="M0 0 C1.447 0.012 2.893 0.021 4.34 0.029 C26.403 0.216 26.403 0.216 29.5 3.312 C29.695 6.352 29.695 6.352 29.625 9.938 C29.607 11.126 29.589 12.315 29.57 13.539 C29.547 14.454 29.524 15.37 29.5 16.312 C25.869 18.605 22.876 18.518 18.645 18.438 C17.983 18.43 17.322 18.422 16.641 18.415 C13.828 18.382 11.016 18.326 8.204 18.271 C-7.4 17.994 -7.4 17.994 -14.5 20.312 C-16.968 24.014 -16.807 25.935 -16.5 30.312 C-15.532 33.438 -14.712 34.195 -11.805 35.805 C-10.673 36.261 -9.541 36.717 -8.375 37.188 C-7.762 37.439 -7.149 37.69 -6.517 37.949 C-1.758 39.877 3.06 41.654 7.875 43.438 C23.022 49.052 23.022 49.052 28.5 55.312 C29.057 55.89 29.614 56.467 30.188 57.062 C34.97 65.261 34.453 76.357 32.188 85.277 C30.598 89.983 27.863 93.904 23.523 96.434 C5.281 104.357 -19.347 101.193 -38.5 98.312 C-39.5 97.312 -39.5 97.312 -39.633 94.188 C-39.63 92.909 -39.628 91.63 -39.625 90.312 C-39.628 89.034 -39.63 87.755 -39.633 86.438 C-39.5 83.312 -39.5 83.312 -38.5 82.312 C-35.481 82.177 -32.482 82.102 -29.461 82.066 C-27.582 82.033 -25.703 82 -23.824 81.967 C-20.855 81.92 -17.886 81.875 -14.917 81.836 C-12.057 81.796 -9.196 81.744 -6.336 81.691 C-5.896 81.687 -5.896 81.687 -3.671 81.666 C1.398 81.565 5.731 81.094 10.5 79.312 C12.079 76.155 12.319 72.706 11.5 69.312 C7.31 63.413 0.949 62.003 -5.688 59.812 C-27.53 52.476 -27.53 52.476 -32.5 46.312 C-32.768 45.993 -32.768 45.993 -34.125 44.375 C-39.023 37.028 -39.268 27.376 -37.812 18.875 C-36.255 12.47 -33.07 7.868 -27.5 4.312 C-18.479 -0.158 -9.798 -0.199 0 0 Z " fill="#052A63" transform="translate(853.5,617.6875)"/>
    <path d="M0 0 C0.373 -0.002 0.373 -0.002 2.261 -0.01 C3.837 -0.015 5.413 -0.017 6.989 -0.017 C9.369 -0.02 11.75 -0.038 14.131 -0.057 C30.041 -0.115 30.041 -0.115 37.207 2.168 C39.14 4.101 38.382 7.543 38.395 10.105 C38.409 11.373 38.423 12.64 38.438 13.945 C38.207 17.168 38.207 17.168 36.207 19.168 C33.385 19.363 33.385 19.363 29.801 19.293 C28.499 19.278 27.197 19.262 25.855 19.246 C23.793 19.209 21.731 19.168 19.669 19.127 C-0.655 18.753 -0.655 18.753 -7.793 23.168 C-11.957 31.341 -12.007 38.804 -12.033 47.813 C-12.043 49.832 -12.074 51.85 -12.105 53.869 C-12.171 70.422 -12.171 70.422 -7.626 76.807 C-2.592 80.544 3.722 80.479 9.73 80.547 C10.517 80.564 11.304 80.581 12.115 80.598 C14.604 80.651 17.093 80.692 19.582 80.73 C22.093 80.774 24.603 80.821 27.114 80.873 C28.671 80.905 30.227 80.932 31.785 80.954 C37.095 81.056 37.095 81.056 38.207 82.168 C38.28 84.698 38.3 87.201 38.27 89.73 C38.265 90.441 38.261 91.152 38.256 91.885 C38.244 93.646 38.226 95.407 38.207 97.168 C28.465 100.641 18.381 100.279 8.145 100.355 C7.14 100.369 6.135 100.382 5.1 100.395 C-5.88 100.408 -16.115 99.446 -24.793 92.168 C-35.014 80.825 -34.062 64.272 -34.105 49.98 C-34.109 49.298 -34.113 48.616 -34.117 47.913 C-34.199 18.551 -34.199 18.551 -26 9.102 C-18.295 1.962 -10.341 0.016 0 0 Z " fill="#052A63" transform="translate(1187.79296875,617.83203125)"/>
    <path d="M0 0 C0.373 -0.002 0.373 -0.002 2.261 -0.01 C3.837 -0.015 5.413 -0.017 6.989 -0.017 C9.369 -0.02 11.75 -0.038 14.131 -0.057 C30.041 -0.115 30.041 -0.115 37.207 2.168 C39.14 4.101 38.382 7.543 38.395 10.105 C38.409 11.373 38.423 12.64 38.438 13.945 C38.207 17.168 38.207 17.168 36.207 19.168 C33.277 19.363 33.277 19.363 29.547 19.293 C28.883 19.285 28.219 19.278 27.535 19.27 C24.697 19.237 21.859 19.182 19.021 19.127 C-0.524 18.782 -0.524 18.782 -7.793 23.168 C-12.23 31.548 -11.975 40.125 -11.98 49.418 C-11.987 49.952 -11.987 49.952 -12.018 52.656 C-12.032 60.616 -12.025 69.118 -8.105 76.23 C-3.196 80.344 2.815 80.445 8.969 80.293 C9.682 80.285 10.395 80.278 11.13 80.27 C13.385 80.246 15.64 80.209 17.895 80.168 C20.878 80.115 23.86 80.075 26.844 80.043 C28.161 80.02 29.478 79.997 30.835 79.973 C34.207 80.168 34.207 80.168 38.207 82.168 C38.207 87.118 38.207 92.068 38.207 97.168 C28.164 100.037 18.541 100.349 8.145 100.355 C7.133 100.368 6.122 100.38 5.08 100.393 C-5.138 100.412 -15.84 99.547 -23.738 92.41 C-34.454 80.977 -34.134 65.105 -34.043 50.23 C-34.051 48.976 -34.058 47.721 -34.066 46.428 C-34.038 32.886 -33.197 20.434 -25.668 8.918 C-18.277 1.848 -9.939 0.016 0 0 Z " fill="#052A63" transform="translate(507.79296875,617.83203125)"/>
    <path d="M0 0 C1 1 1 1 1.114 3.5 C1.108 4.584 1.103 5.668 1.098 6.785 C1.094 7.955 1.091 9.125 1.088 10.33 C1.084 10.946 1.084 10.946 1.062 14.062 C1.058 15.298 1.053 16.534 1.049 17.807 C1.037 20.871 1.021 23.936 1 27 C1.285 26.997 1.285 26.997 2.728 26.984 C5.298 26.963 7.868 26.95 10.438 26.938 C11.335 26.929 12.233 26.921 13.158 26.912 C14.012 26.909 14.866 26.906 15.746 26.902 C16.537 26.897 17.328 26.892 18.142 26.886 C20 27 20 27 21 28 C21.073 30.53 21.092 33.033 21.062 35.562 C21.058 36.273 21.053 36.984 21.049 37.717 C21.037 39.478 21.019 41.239 21 43 C16.526 43.814 12.288 44.056 7.734 44.031 C7.197 44.029 7.197 44.029 4.476 44.018 C3.659 44.012 2.842 44.006 2 44 C1.931 51.641 1.877 59.281 1.845 66.922 C1.829 70.47 1.808 74.018 1.774 77.566 C1.735 81.644 1.72 85.722 1.707 89.801 C1.692 91.076 1.676 92.351 1.66 93.665 C1.66 94.255 1.66 94.255 1.659 97.243 C1.653 98.285 1.646 99.326 1.639 100.399 C2 103 2 103 3.402 104.833 C5.378 106.276 6.58 106.42 9.012 106.512 C9.39 106.529 9.39 106.529 11.307 106.619 C12.092 106.642 12.878 106.664 13.688 106.688 C14.485 106.722 15.282 106.756 16.104 106.791 C18.069 106.873 20.034 106.938 22 107 C23.426 109.852 23.132 112.325 23.125 115.5 C23.126 116.083 23.126 116.083 23.133 119.031 C23 122 23 122 22 124 C11.436 127.323 -1.909 127.927 -12 123 C-15.879 120.892 -17.269 118.887 -18.615 114.811 C-20.602 107.818 -20.375 100.784 -20.293 93.586 C-20.287 92.12 -20.283 90.655 -20.28 89.19 C-20.269 85.366 -20.239 81.542 -20.206 77.718 C-20.175 73.803 -20.162 69.888 -20.146 65.973 C-20.114 58.315 -20.062 50.658 -20 43 C-23.96 43 -27.92 43 -32 43 C-32.955 38.225 -33.242 33.849 -33 29 C-31 27 -31 27 -28.398 26.805 C-27.401 26.828 -26.403 26.851 -25.375 26.875 C-24.874 26.884 -24.874 26.884 -22.336 26.93 C-21.565 26.953 -20.794 26.976 -20 27 C-20.026 26.38 -20.052 25.759 -20.079 25.12 C-20.183 22.309 -20.248 19.499 -20.312 16.688 C-20.354 15.711 -20.396 14.735 -20.439 13.729 C-20.485 11.069 -20.466 8.62 -20 6 C-17.793 3.938 -17.793 3.938 -15 3 C-14.175 2.687 -13.35 2.374 -12.5 2.051 C-11.675 1.807 -10.85 1.564 -10 1.312 C-9.175 1.061 -8.35 0.81 -7.5 0.551 C-4.904 -0.021 -2.65 -0.17 0 0 Z " fill="#052A63" transform="translate(1524,592)"/>
    <path d="M0 0 C0.812 -0.004 1.624 -0.008 2.461 -0.012 C16.511 0.011 16.511 0.011 18.625 2.125 C18.752 4.617 18.81 7.07 18.812 9.562 C18.825 10.257 18.837 10.951 18.85 11.666 C18.855 13.487 18.747 15.308 18.625 17.125 C16.625 19.125 16.625 19.125 12.992 19.25 C10.752 19.202 8.513 19.125 6.273 19.047 C1.025 18.936 -3.391 19.38 -8.375 21.125 C-10.91 24.56 -10.645 28.117 -10.678 32.264 C-10.686 32.975 -10.695 33.686 -10.704 34.419 C-10.729 36.762 -10.741 39.106 -10.754 41.449 C-10.77 43.078 -10.787 44.706 -10.805 46.335 C-10.851 50.617 -10.886 54.899 -10.918 59.181 C-10.97 66.047 -11.034 72.912 -11.106 79.777 C-11.129 82.179 -11.145 84.582 -11.161 86.984 C-11.174 88.447 -11.188 89.911 -11.201 91.374 C-11.211 92.656 -11.22 93.939 -11.23 95.26 C-11.375 98.125 -11.375 98.125 -12.375 99.125 C-13.705 99.223 -15.041 99.256 -16.375 99.258 C-17.179 99.259 -17.984 99.26 -18.812 99.262 C-19.658 99.258 -20.504 99.254 -21.375 99.25 C-22.221 99.254 -23.066 99.258 -23.938 99.262 C-24.742 99.26 -25.546 99.259 -26.375 99.258 C-27.118 99.257 -27.86 99.256 -28.625 99.254 C-30.375 99.125 -30.375 99.125 -31.375 98.125 C-31.486 95.642 -31.532 93.187 -31.536 90.703 C-31.541 89.926 -31.546 89.148 -31.551 88.347 C-31.566 85.761 -31.573 83.176 -31.578 80.59 C-31.584 78.794 -31.59 76.999 -31.595 75.204 C-31.606 71.43 -31.612 67.656 -31.615 63.882 C-31.621 59.059 -31.645 54.236 -31.673 49.414 C-31.692 45.7 -31.697 41.986 -31.699 38.272 C-31.702 36.495 -31.71 34.718 -31.723 32.941 C-31.74 30.445 -31.738 27.949 -31.731 25.453 C-31.741 24.726 -31.75 23.999 -31.759 23.25 C-31.708 16.829 -30.2 11.471 -26.188 6.312 C-18.5 0.333 -9.402 -0.044 0 0 Z " fill="#052A63" transform="translate(1126.375,617.875)"/>
    <path d="M0 0 C2.795 -0.031 2.795 -0.031 16.938 -0.188 C18.683 -0.215 20.428 -0.242 22.226 -0.27 C31.334 -0.354 39.155 -0.402 46.938 5.062 C52.872 13.515 52.126 27.009 50.535 36.887 C49.485 40.648 48.346 42.654 45.562 45.438 C36.09 49.592 25.541 49.289 15.375 49.188 C14.11 49.187 12.846 49.186 11.543 49.186 C2.282 49.141 2.282 49.141 0 48 C0 32.16 0 16.32 0 0 Z " fill="#FFFFFF" transform="translate(630,600)"/>
    <path d="M0 0 C0.804 -0.001 1.609 -0.003 2.438 -0.004 C3.283 -0 4.129 0.004 5 0.008 C5.423 0.006 5.423 0.006 7.562 -0.004 C8.367 -0.003 9.171 -0.001 10 0 C10.742 0.001 11.485 0.002 12.25 0.003 C14 0.133 14 0.133 15 1.133 C15.136 4.038 15.207 6.921 15.237 9.828 C15.25 10.74 15.263 11.652 15.277 12.592 C15.319 15.624 15.353 18.656 15.387 21.688 C15.412 23.786 15.438 25.885 15.464 27.984 C15.517 32.391 15.566 36.798 15.613 41.205 C15.673 46.86 15.747 52.515 15.825 58.17 C15.882 62.507 15.931 66.845 15.977 71.182 C16 73.267 16.027 75.353 16.057 77.438 C16.098 80.352 16.126 83.265 16.151 86.179 C16.166 87.046 16.181 87.912 16.196 88.805 C16.228 94.79 16.228 94.79 14 98.133 C12.136 98.489 12.136 98.489 9.902 98.461 C9.101 98.456 8.3 98.451 7.475 98.445 C6.637 98.425 5.8 98.404 4.938 98.383 C4.096 98.378 3.255 98.372 2.389 98.367 C-3.846 98.287 -3.846 98.287 -5 97.133 C-5.101 94.155 -5.136 91.201 -5.129 88.223 C-5.131 87.288 -5.133 86.353 -5.135 85.39 C-5.139 82.283 -5.136 79.177 -5.133 76.07 C-5.133 73.922 -5.134 71.773 -5.136 69.625 C-5.137 65.115 -5.135 60.606 -5.13 56.097 C-5.125 50.302 -5.128 44.508 -5.134 38.714 C-5.138 34.275 -5.136 29.837 -5.134 25.398 C-5.133 23.261 -5.134 21.124 -5.136 18.987 C-5.139 16.005 -5.135 13.024 -5.129 10.043 C-5.131 9.15 -5.133 8.258 -5.136 7.338 C-5.11 0.008 -5.11 0.008 0 0 Z " fill="#052A63" transform="translate(568,618.8671875)"/>
    <path d="M0 0 C0.804 -0.001 1.609 -0.003 2.438 -0.004 C3.283 -0 4.129 0.004 5 0.008 C5.423 0.006 5.423 0.006 7.562 -0.004 C8.367 -0.003 9.171 -0.001 10 0 C10.743 0.001 11.485 0.002 12.25 0.003 C14 0.133 14 0.133 15 1.133 C15.101 4.11 15.136 7.065 15.129 10.043 C15.131 10.978 15.133 11.913 15.135 12.876 C15.139 15.982 15.136 19.089 15.133 22.195 C15.133 24.344 15.134 26.492 15.136 28.641 C15.137 33.15 15.135 37.66 15.13 42.169 C15.125 47.963 15.128 53.758 15.134 59.552 C15.138 63.99 15.136 68.429 15.134 72.867 C15.133 75.005 15.134 77.142 15.136 79.279 C15.139 82.26 15.135 85.241 15.129 88.223 C15.131 89.115 15.133 90.008 15.136 90.927 C15.114 97.019 15.114 97.019 14 98.133 C12.67 98.231 11.334 98.264 10 98.266 C9.196 98.267 8.391 98.268 7.562 98.27 C6.717 98.266 5.871 98.262 5 98.258 C4.154 98.262 3.309 98.266 2.438 98.27 C1.633 98.268 0.829 98.267 0 98.266 C-0.743 98.264 -1.485 98.263 -2.25 98.262 C-4 98.133 -4 98.133 -5 97.133 C-5.101 94.155 -5.136 91.201 -5.129 88.223 C-5.131 87.288 -5.133 86.353 -5.135 85.39 C-5.139 82.283 -5.136 79.177 -5.133 76.07 C-5.133 73.922 -5.134 71.773 -5.136 69.625 C-5.137 65.115 -5.135 60.606 -5.13 56.097 C-5.125 50.302 -5.128 44.508 -5.134 38.714 C-5.138 34.275 -5.136 29.837 -5.134 25.398 C-5.133 23.261 -5.134 21.124 -5.136 18.987 C-5.139 16.005 -5.135 13.024 -5.129 10.043 C-5.131 9.15 -5.133 8.258 -5.136 7.338 C-5.11 0.008 -5.11 0.008 0 0 Z " fill="#052A63" transform="translate(1461,618.8671875)"/>
    <path d="M0 0 C0.601 0.002 0.601 0.002 3.643 0.01 C4.888 0.018 6.134 0.027 7.418 0.035 C8.683 0.04 9.948 0.044 11.252 0.049 C14.37 0.061 17.488 0.079 20.605 0.098 C20.605 7.688 20.605 15.278 20.605 23.098 C13.976 24.424 8.499 25.421 1.918 25.348 C1.211 25.355 0.504 25.363 -0.225 25.371 C-4.899 25.354 -9.014 24.891 -13.395 23.098 C-17.095 18.73 -16.955 14.424 -16.812 8.922 C-16.395 6.098 -16.395 6.098 -14.207 2.91 C-9.625 -0.042 -5.358 -0.025 0 0 Z " fill="#FFFFFF" transform="translate(1032.39453125,674.90234375)"/>
    <path d="M0 0 C3.746 5.844 3.562 12.698 3.562 19.438 C-9.638 19.438 -22.837 19.438 -36.438 19.438 C-36.438 4.78 -36.438 4.78 -31.25 -1 C-21.403 -6.47 -9.465 -6.068 0 0 Z " fill="#FFFFFF" transform="translate(958.4375,640.5625)"/>
    <path d="M0 0 C4.069 6.022 3.562 12.196 3.562 19.312 C-9.308 19.312 -22.178 19.312 -35.438 19.312 C-35.438 5.04 -35.438 5.04 -31.375 -0.5 C-22.49 -7.117 -8.897 -6.16 0 0 Z " fill="#FFFFFF" transform="translate(776.4375,640.6875)"/>
    <path d="M0 0 C3.062 1.812 3.062 1.812 5 5 C5.845 9.7 6.3 14.553 3.996 18.891 C1.022 21.839 -1.962 22.328 -6.062 22.5 C-10.1 22.275 -12.915 21.796 -16 19 C-18.466 15.189 -18.215 11.505 -17.613 7.156 C-16.649 3.766 -14.747 2.093 -12 0 C-7.787 -1.404 -4.288 -1.044 0 0 Z " fill="#052A63" transform="translate(579,579)"/>
    <path d="M0 0 C3.718 1.69 5.834 3.565 8 7 C8.877 11.857 8.714 15.833 6.125 20.062 C2.544 23.327 -0.059 23.275 -4.742 23.223 C-7.803 22.921 -9.635 21.935 -12 20 C-14.152 16.773 -14.272 15.795 -14.25 12.062 C-14.255 11.208 -14.26 10.353 -14.266 9.473 C-13.982 6.834 -13.4 5.24 -12 3 C-8.059 -0.153 -4.97 -0.533 0 0 Z " fill="#052A63" transform="translate(1469,578)"/>
  </g>
</svg>
